<svg width="20" height="17" viewBox="0 0 20 17" fill="none" xmlns="http://www.w3.org/2000/svg">
<path d="M7.39918 8.5H9.3267C10.3868 8.5 11.4035 8.9242 12.1531 9.67928C12.9027 10.4344 13.3239 11.4585 13.3239 12.5263H7.10517L7.10606 13.4211H14.2121V12.5263C14.2093 11.5743 13.9362 10.6429 13.4251 9.8421H15.9886C16.8283 9.84187 17.6508 10.0814 18.3608 10.5329C19.0707 10.9844 19.6391 11.6293 20 12.393C17.8993 15.1855 14.4981 17 10.6591 17C8.20661 17 6.12897 16.4721 4.44129 15.5461V7.22142C5.52195 7.37735 6.54243 7.81847 7.39918 8.5ZM3.55303 15.2105C3.55303 15.4478 3.45944 15.6754 3.29286 15.8432C3.12628 16.011 2.90035 16.1053 2.66477 16.1053H0.888257C0.652677 16.1053 0.426745 16.011 0.260164 15.8432C0.0935839 15.6754 0 15.4478 0 15.2105V7.15789C0 6.9206 0.0935839 6.69302 0.260164 6.52522C0.426745 6.35742 0.652677 6.26316 0.888257 6.26316H2.66477C2.90035 6.26316 3.12628 6.35742 3.29286 6.52522C3.45944 6.69302 3.55303 6.9206 3.55303 7.15789V15.2105ZM15.1004 2.68421C15.8071 2.68421 16.4849 2.96701 16.9847 3.4704C17.4844 3.97378 17.7651 4.65652 17.7651 5.36842C17.7651 6.08032 17.4844 6.76306 16.9847 7.26644C16.4849 7.76983 15.8071 8.05263 15.1004 8.05263C14.3936 8.05263 13.7158 7.76983 13.2161 7.26644C12.7164 6.76306 12.4356 6.08032 12.4356 5.36842C12.4356 4.65652 12.7164 3.97378 13.2161 3.4704C13.7158 2.96701 14.3936 2.68421 15.1004 2.68421ZM8.88257 0C9.58931 0 10.2671 0.2828 10.7669 0.786187C11.2666 1.28957 11.5473 1.97231 11.5473 2.68421C11.5473 3.39611 11.2666 4.07885 10.7669 4.58223C10.2671 5.08562 9.58931 5.36842 8.88257 5.36842C8.17583 5.36842 7.49804 5.08562 6.99829 4.58223C6.49855 4.07885 6.2178 3.39611 6.2178 2.68421C6.2178 1.97231 6.49855 1.28957 6.99829 0.786187C7.49804 0.2828 8.17583 0 8.88257 0Z" fill="currentColor"/>
</svg>
