<svg width="18" height="17" viewBox="0 0 18 17" fill="none" xmlns="http://www.w3.org/2000/svg">
<path d="M6 12.439H14.7746L16.2857 13.5876V4.97561H17.1429C17.3702 4.97561 17.5882 5.06298 17.7489 5.2185C17.9097 5.37401 18 5.58494 18 5.80488V17L14.1814 14.0976H6.85714C6.62981 14.0976 6.4118 14.0102 6.25105 13.8547C6.09031 13.6992 6 13.4882 6 13.2683V12.439ZM3.81857 10.7805L0 13.6829V0.829268C0 0.609333 0.0903058 0.398405 0.251051 0.242887C0.411797 0.087369 0.629814 0 0.857143 0H13.7143C13.9416 0 14.1596 0.087369 14.3204 0.242887C14.4811 0.398405 14.5714 0.609333 14.5714 0.829268V10.7805H3.81857Z" fill="#B8B8B8"/>
</svg>
