<svg width="13" height="13" viewBox="0 0 13 13" fill="none" xmlns="http://www.w3.org/2000/svg">
<path d="M3.18212 7.75002L0.583374 9.79169V0.75002C0.583374 0.595311 0.644832 0.446938 0.754228 0.337541C0.863625 0.228145 1.012 0.166687 1.16671 0.166687H9.91671C10.0714 0.166687 10.2198 0.228145 10.3292 0.337541C10.4386 0.446938 10.5 0.595311 10.5 0.75002V7.75002H3.18212ZM2.77846 6.58335H9.33337V1.33335H1.75004V7.39127L2.77846 6.58335ZM4.66671 8.91669H10.6383L11.6667 9.7246V3.66669H12.25C12.4047 3.66669 12.5531 3.72815 12.6625 3.83754C12.7719 3.94694 12.8334 4.09531 12.8334 4.25002V12.125L10.2346 10.0834H5.25004C5.09533 10.0834 4.94696 10.0219 4.83756 9.9125C4.72817 9.8031 4.66671 9.65473 4.66671 9.50002V8.91669Z" fill="white" fill-opacity="0.66"/>
</svg>
