<svg width="16" height="18" viewBox="0 0 16 18" fill="none" xmlns="http://www.w3.org/2000/svg">
<path d="M15.1111 18H3.11111C2.28599 18 1.49467 17.6681 0.911224 17.0774C0.327777 16.4866 0 15.6854 0 14.85V2.7C0 1.98392 0.280952 1.29716 0.781049 0.790812C1.28115 0.284464 1.95942 0 2.66667 0H15.1111C15.3469 0 15.573 0.0948211 15.7397 0.263604C15.9064 0.432387 16 0.661305 16 0.9V17.1C16 17.3387 15.9064 17.5676 15.7397 17.7364C15.573 17.9052 15.3469 18 15.1111 18ZM14.2222 16.2V13.5H3.11111C2.75749 13.5 2.41835 13.6422 2.1683 13.8954C1.91825 14.1486 1.77778 14.492 1.77778 14.85C1.77778 15.208 1.91825 15.5514 2.1683 15.8046C2.41835 16.0578 2.75749 16.2 3.11111 16.2H14.2222ZM6.22222 1.8V9L9.33333 7.2L12.4444 9V1.8H6.22222Z" fill="#B8B8B8"/>
</svg>
