<svg width="19" height="14" viewBox="0 0 19 14" fill="none" xmlns="http://www.w3.org/2000/svg">
<path d="M5.86799 6.74074C6.83141 6.74074 7.75537 6.38565 8.4366 5.75358C9.11784 5.12151 9.50056 4.26425 9.50056 3.37037C9.50056 2.47649 9.11784 1.61923 8.4366 0.987158C7.75537 0.355091 6.83141 0 5.86799 0C4.90458 0 3.98062 0.355091 3.29938 0.987158C2.61814 1.61923 2.23543 2.47649 2.23543 3.37037C2.23543 4.26425 2.61814 5.12151 3.29938 5.75358C3.98062 6.38565 4.90458 6.74074 5.86799 6.74074ZM12.2244 12.0763C12.8168 12.3013 13.5702 12.4444 14.5291 12.4444C19 12.4444 19 9.33333 19 9.33333C19 8.92095 18.8235 8.52545 18.5093 8.23376C18.1952 7.94206 17.769 7.77805 17.3245 7.77778H12.1518C12.591 8.27141 12.8548 8.90296 12.8548 9.59259V9.96178C12.8525 10.0491 12.8462 10.1363 12.8358 10.2231C12.7604 10.8711 12.5522 11.4999 12.2244 12.0763ZM17.3245 4.14815C17.3245 4.83575 17.0302 5.49518 16.5061 5.98139C15.9821 6.46759 15.2714 6.74074 14.5303 6.74074C13.7892 6.74074 13.0784 6.46759 12.5544 5.98139C12.0304 5.49518 11.736 4.83575 11.736 4.14815C11.736 3.46055 12.0304 2.80111 12.5544 2.31491C13.0784 1.8287 13.7892 1.55556 14.5303 1.55556C15.2714 1.55556 15.9821 1.8287 16.5061 2.31491C17.0302 2.80111 17.3245 3.46055 17.3245 4.14815ZM0 9.85185C0 9.30177 0.235517 8.77422 0.654741 8.38526C1.07396 7.9963 1.64255 7.77778 2.23543 7.77778H9.50056C10.0934 7.77778 10.662 7.9963 11.0812 8.38526C11.5005 8.77422 11.736 9.30177 11.736 9.85185C11.736 9.85185 11.736 14 5.86799 14C0 14 0 9.85185 0 9.85185ZM12.8537 9.96178L12.8503 10.0281L12.8526 9.96178H12.8537Z" fill="#B8B8B8"/>
</svg>
