<svg width="13" height="15" viewBox="0 0 13 15" fill="none" xmlns="http://www.w3.org/2000/svg">
<path d="M8.29737 5.79005L8.0667 11.7901M4.8747 11.7901L4.64404 5.79005M11.2894 3.65005C11.5174 3.68472 11.744 3.72138 11.9707 3.76072M11.2894 3.65005L10.5774 12.9054C10.5483 13.2822 10.3781 13.6342 10.1007 13.8909C9.82335 14.1476 9.45931 14.2902 9.08137 14.2901H3.86004C3.4821 14.2902 3.11805 14.1476 2.84069 13.8909C2.56333 13.6342 2.3931 13.2822 2.36404 12.9054L1.65204 3.65005M11.2894 3.65005C10.5199 3.53373 9.74655 3.44545 8.9707 3.38538M1.65204 3.65005C1.42404 3.68405 1.19737 3.72072 0.970703 3.76005M1.65204 3.65005C2.42146 3.53373 3.19486 3.44545 3.9707 3.38538M8.9707 3.38538V2.77472C8.9707 1.98805 8.36404 1.33205 7.57737 1.30738C6.83978 1.28381 6.10163 1.28381 5.36404 1.30738C4.57737 1.33205 3.9707 1.98872 3.9707 2.77472V3.38538M8.9707 3.38538C7.30652 3.25677 5.63489 3.25677 3.9707 3.38538" stroke="white" stroke-opacity="0.8" stroke-linecap="round" stroke-linejoin="round"/>
</svg>
