<svg width="16" height="16" viewBox="0 0 16 16" fill="none" xmlns="http://www.w3.org/2000/svg">
<path d="M5.33333 16H1.77778C0.8 16 0 15.2 0 14.2222V1.77778C0 0.8 0.8 0 1.77778 0H5.33333C6.31111 0 7.11111 0.8 7.11111 1.77778V14.2222C7.11111 15.2 6.31111 16 5.33333 16ZM10.6667 16H14.2222C15.2 16 16 15.2 16 14.2222V9.77778C16 8.8 15.2 8 14.2222 8H10.6667C9.68889 8 8.88889 8.8 8.88889 9.77778V14.2222C8.88889 15.2 9.68889 16 10.6667 16ZM16 4.44444V1.77778C16 0.8 15.2 0 14.2222 0H10.6667C9.68889 0 8.88889 0.8 8.88889 1.77778V4.44444C8.88889 5.42222 9.68889 6.22222 10.6667 6.22222H14.2222C15.2 6.22222 16 5.42222 16 4.44444Z" fill="#B8B8B8"/>
</svg>
