<svg width="15" height="14" viewBox="0 0 15 14" fill="none" xmlns="http://www.w3.org/2000/svg">
<path d="M8.13371 9.88545H7.46704V7.21875H6.80037M7.46704 4.55208H7.47371M13.467 7.21875C13.467 8.00668 13.3118 8.78685 13.0103 9.51485C12.7087 10.2428 12.2668 10.9043 11.7096 11.4614C11.1525 12.0186 10.4911 12.4604 9.76314 12.762C9.03519 13.0635 8.25497 13.2188 7.46704 13.2188C6.67911 13.2188 5.89889 13.0635 5.17094 12.762C4.44299 12.4604 3.78155 12.0186 3.2244 11.4614C2.66725 10.9043 2.22529 10.2428 1.92376 9.51485C1.62223 8.78685 1.46704 8.00668 1.46704 7.21875C1.46704 5.62745 2.09918 4.10133 3.2244 2.97611C4.34962 1.85089 5.87574 1.21875 7.46704 1.21875C9.05834 1.21875 10.5844 1.85089 11.7096 2.97611C12.8349 4.10133 13.467 5.62745 13.467 7.21875Z" stroke="#9CA3AF" stroke-width="1.5" stroke-linecap="round" stroke-linejoin="round"/>
</svg>
