<svg width="10" height="9" viewBox="0 0 10 9" fill="none" xmlns="http://www.w3.org/2000/svg">
<path d="M5.42635 0.573035C5.42635 0.433796 5.37104 0.30026 5.27259 0.201804C5.17413 0.103347 5.04059 0.0480347 4.90135 0.0480347C4.76212 0.0480347 4.62858 0.103347 4.53012 0.201804C4.43167 0.30026 4.37635 0.433796 4.37635 0.573035V3.72303H1.22635C1.08712 3.72303 0.95358 3.77835 0.855124 3.8768C0.756667 3.97526 0.701355 4.1088 0.701355 4.24803C0.701355 4.38727 0.756667 4.52081 0.855124 4.61927C0.95358 4.71772 1.08712 4.77303 1.22635 4.77303H4.37635V7.92303C4.37635 8.06227 4.43167 8.19581 4.53012 8.29427C4.62858 8.39272 4.76212 8.44803 4.90135 8.44803C5.04059 8.44803 5.17413 8.39272 5.27259 8.29427C5.37104 8.19581 5.42635 8.06227 5.42635 7.92303V4.77303H8.57635C8.71559 4.77303 8.84913 4.71772 8.94759 4.61927C9.04604 4.52081 9.10135 4.38727 9.10135 4.24803C9.10135 4.1088 9.04604 3.97526 8.94759 3.8768C8.84913 3.77835 8.71559 3.72303 8.57635 3.72303H5.42635V0.573035Z" fill="white" fill-opacity="0.8"/>
</svg>
