<svg width="22" height="22" viewBox="0 0 22 22" fill="none" xmlns="http://www.w3.org/2000/svg">
<path d="M7.73679 3.00001L10.3438 0.393006C10.5313 0.205535 10.7856 0.10022 11.0508 0.10022C11.316 0.10022 11.5703 0.205535 11.7578 0.393006L14.3648 3.00001H18.0508C18.316 3.00001 18.5704 3.10536 18.7579 3.2929C18.9454 3.48044 19.0508 3.73479 19.0508 4.00001V7.68601L21.6578 10.293C21.8453 10.4805 21.9506 10.7348 21.9506 11C21.9506 11.2652 21.8453 11.5195 21.6578 11.707L19.0508 14.314V18C19.0508 18.2652 18.9454 18.5196 18.7579 18.7071C18.5704 18.8946 18.316 19 18.0508 19H14.3648L11.7578 21.607C11.5703 21.7945 11.316 21.8998 11.0508 21.8998C10.7856 21.8998 10.5313 21.7945 10.3438 21.607L7.73679 19H4.05079C3.78557 19 3.53122 18.8946 3.34368 18.7071C3.15614 18.5196 3.05079 18.2652 3.05079 18V14.314L0.443787 11.707C0.256316 11.5195 0.151001 11.2652 0.151001 11C0.151001 10.7348 0.256316 10.4805 0.443787 10.293L3.05079 7.68601V4.00001C3.05079 3.73479 3.15614 3.48044 3.34368 3.2929C3.53122 3.10536 3.78557 3.00001 4.05079 3.00001H7.73679ZM5.05079 5.00001V8.51501L2.56579 11L5.05079 13.485V17H8.56579L11.0508 19.485L13.5358 17H17.0508V13.485L19.5358 11L17.0508 8.51501V5.00001H13.5358L11.0508 2.51501L8.56579 5.00001H5.05079ZM11.0508 15C9.98992 15 8.97251 14.5786 8.22236 13.8284C7.47222 13.0783 7.05079 12.0609 7.05079 11C7.05079 9.93914 7.47222 8.92173 8.22236 8.17158C8.97251 7.42143 9.98992 7.00001 11.0508 7.00001C12.1117 7.00001 13.1291 7.42143 13.8792 8.17158C14.6294 8.92173 15.0508 9.93914 15.0508 11C15.0508 12.0609 14.6294 13.0783 13.8792 13.8284C13.1291 14.5786 12.1117 15 11.0508 15ZM11.0508 13C11.5812 13 12.0899 12.7893 12.465 12.4142C12.8401 12.0391 13.0508 11.5304 13.0508 11C13.0508 10.4696 12.8401 9.96087 12.465 9.58579C12.0899 9.21072 11.5812 9.00001 11.0508 9.00001C10.5204 9.00001 10.0116 9.21072 9.63657 9.58579C9.2615 9.96087 9.05079 10.4696 9.05079 11C9.05079 11.5304 9.2615 12.0391 9.63657 12.4142C10.0116 12.7893 10.5204 13 11.0508 13Z" fill="currentColor"/>
</svg>
