<svg width="17" height="18" viewBox="0 0 17 18" fill="none" xmlns="http://www.w3.org/2000/svg">
<path d="M0.5 9.83333H5.5V8.16666H0.5V0.53833C0.500012 0.465925 0.518892 0.394774 0.554778 0.331888C0.590664 0.269003 0.642317 0.216554 0.704647 0.179711C0.766977 0.142868 0.837832 0.122903 0.910228 0.121784C0.982623 0.120665 1.05406 0.138431 1.1175 0.17333L16.5025 8.635C16.5678 8.67097 16.6223 8.72381 16.6602 8.78801C16.6982 8.85221 16.7182 8.92542 16.7182 9C16.7182 9.07457 16.6982 9.14778 16.6602 9.21198C16.6223 9.27619 16.5678 9.32903 16.5025 9.365L1.1175 17.8267C1.05406 17.8616 0.982623 17.8793 0.910228 17.8782C0.837832 17.8771 0.766977 17.8571 0.704647 17.8203C0.642317 17.7834 0.590664 17.731 0.554778 17.6681C0.518892 17.6052 0.500012 17.5341 0.5 17.4617V9.83333Z" fill="black"/>
</svg>
