<svg width="11" height="12" viewBox="0 0 11 12" fill="none" xmlns="http://www.w3.org/2000/svg">
<path fill-rule="evenodd" clip-rule="evenodd" d="M3.34727 0.541565H7.38416C7.76724 0.541559 8.08343 0.541553 8.34098 0.56476C8.60848 0.588865 8.85437 0.640596 9.08533 0.770387C9.44356 0.971662 9.73473 1.29283 9.91724 1.68785C10.035 1.94259 10.0819 2.21378 10.1037 2.50879C10.1248 2.79283 10.1248 3.14152 10.1248 3.564V8.01611C10.1248 8.4386 10.1248 8.78728 10.1037 9.07132C10.0819 9.36634 10.035 9.63753 9.91724 9.89225C9.73473 10.2873 9.44356 10.6084 9.08533 10.8097C8.85437 10.9395 8.60848 10.9913 8.34098 11.0154C8.08343 11.0386 7.76726 11.0385 7.38418 11.0385H3.34726C2.96418 11.0385 2.64801 11.0386 2.39045 11.0154C2.12295 10.9913 1.87705 10.9395 1.64608 10.8097C1.2879 10.6084 0.996678 10.2873 0.814172 9.89225C0.696485 9.63753 0.649578 9.36634 0.627723 9.07132C0.606679 8.78728 0.606684 8.43859 0.60669 8.0161V3.56401C0.606684 3.14153 0.606679 2.79283 0.627723 2.50879C0.649578 2.21378 0.696485 1.94259 0.814172 1.68785C0.996678 1.29283 1.2879 0.971662 1.64608 0.770387C1.87705 0.640596 2.12295 0.588865 2.39045 0.56476C2.64801 0.541553 2.96419 0.541559 3.34727 0.541565ZM2.9862 3.16581C2.9862 2.87594 3.19927 2.64097 3.46211 2.64097H7.26933C7.53216 2.64097 7.74523 2.87594 7.74523 3.16581C7.74523 3.45567 7.53216 3.69066 7.26933 3.69066H5.84162V8.4143C5.84162 8.70417 5.62855 8.93915 5.36572 8.93915C5.10288 8.93915 4.88982 8.70417 4.88982 8.4143V3.69066H3.46211C3.19927 3.69066 2.9862 3.45567 2.9862 3.16581Z" fill="white" fill-opacity="0.5"/>
</svg>
